<svg width="56" height="56" viewBox="0 0 56 56" fill="none" xmlns="http://www.w3.org/2000/svg">
<rect x="32" y="18" width="2.56527" height="20.67" rx="1.28264" fill="#21BA90"/>
<rect x="22" y="18" width="2.56527" height="20.67" rx="1.28264" fill="#21BA90"/>
<path d="M28 0C22.4621 0 17.0486 1.64217 12.444 4.71885C7.83947 7.79553 4.25064 12.1685 2.13139 17.2849C0.0121317 22.4012 -0.542361 28.0311 0.538025 33.4625C1.61841 38.894 4.28515 43.8831 8.20103 47.799C12.1169 51.7149 17.106 54.3816 22.5375 55.462C27.969 56.5424 33.5988 55.9879 38.7152 53.8686C43.8315 51.7494 48.2045 48.1606 51.2812 43.556C54.3579 38.9514 56 33.5379 56 28C55.9919 20.5764 53.0393 13.4593 47.79 8.21002C42.5408 2.96076 35.4236 0.00815247 28 0ZM28 53.76C22.9052 53.76 17.9247 52.2492 13.6885 49.4187C9.45231 46.5881 6.15059 42.565 4.20088 37.8579C2.25116 33.1509 1.74103 27.9714 2.73498 22.9745C3.72894 17.9775 6.18234 13.3875 9.78494 9.78493C13.3875 6.18233 17.9775 3.72893 22.9745 2.73497C27.9714 1.74102 33.1509 2.25115 37.8579 4.20086C42.565 6.15058 46.5881 9.4523 49.4187 13.6885C52.2492 17.9247 53.76 22.9052 53.76 28C53.7526 34.8297 51.0362 41.3776 46.2069 46.2069C41.3776 51.0362 34.8297 53.7526 28 53.76Z" fill="#21BA90"/>
</svg>
