<svg  fill="none" xmlns="http://www.w3.org/2000/svg">
<path d="M36.5 73.1429C38.8869 73.1429 41.1761 72.1796 42.864 70.465C44.5518 68.7504 45.5 66.4248 45.5 64C45.5 61.5752 44.5518 59.2496 42.864 57.535C41.1761 55.8204 38.8869 54.8571 36.5 54.8571C34.1131 54.8571 31.8239 55.8204 30.136 57.535C28.4482 59.2496 27.5 61.5752 27.5 64C27.5 66.4248 28.4482 68.7504 30.136 70.465C31.8239 72.1796 34.1131 73.1429 36.5 73.1429ZM63.5 32C65.8869 32 68.1761 32.9633 69.864 34.6779C71.5518 36.3925 72.5 38.718 72.5 41.1429V86.8571C72.5 89.282 71.5518 91.6075 69.864 93.3221C68.1761 95.0367 65.8869 96 63.5 96H9.5C7.11305 96 4.82387 95.0367 3.13604 93.3221C1.44821 91.6075 0.5 89.282 0.5 86.8571V41.1429C0.5 38.718 1.44821 36.3925 3.13604 34.6779C4.82387 32.9633 7.11305 32 9.5 32H14V22.8571C14 16.7951 16.3705 10.9812 20.5901 6.6947C24.8097 2.40816 30.5326 0 36.5 0C39.4547 0 42.3806 0.591218 45.1104 1.7399C47.8402 2.88858 50.3206 4.57222 52.4099 6.6947C54.4992 8.81718 56.1566 11.3369 57.2873 14.1101C58.418 16.8832 59 19.8555 59 22.8571V32H63.5ZM36.5 9.14286C32.9196 9.14286 29.4858 10.5878 26.9541 13.1597C24.4223 15.7316 23 19.2199 23 22.8571V32H50V22.8571C50 19.2199 48.5777 15.7316 46.0459 13.1597C43.5142 10.5878 40.0804 9.14286 36.5 9.14286Z" fill="#99DDCC"/>
</svg>
