<svg width="19" height="18" viewBox="0 0 19 18" fill="none" xmlns="http://www.w3.org/2000/svg">
<g clip-path="url(#clip0_39_7916)">
<path d="M1.16309 11.1375C1.31227 11.1375 1.45534 11.1968 1.56083 11.3023C1.66632 11.4077 1.72559 11.5508 1.72559 11.7V14.5125C1.72559 14.8109 1.84411 15.097 2.05509 15.308C2.26607 15.519 2.55222 15.6375 2.85059 15.6375H16.3506C16.649 15.6375 16.9351 15.519 17.1461 15.308C17.3571 15.097 17.4756 14.8109 17.4756 14.5125V11.7C17.4756 11.5508 17.5348 11.4077 17.6403 11.3023C17.7458 11.1968 17.8889 11.1375 18.0381 11.1375C18.1873 11.1375 18.3303 11.1968 18.4358 11.3023C18.5413 11.4077 18.6006 11.5508 18.6006 11.7V14.5125C18.6006 15.1092 18.3635 15.6815 17.9416 16.1035C17.5196 16.5254 16.9473 16.7625 16.3506 16.7625H2.85059C2.25385 16.7625 1.68155 16.5254 1.2596 16.1035C0.837639 15.6815 0.600586 15.1092 0.600586 14.5125V11.7C0.600586 11.5508 0.659849 11.4077 0.765338 11.3023C0.870828 11.1968 1.0139 11.1375 1.16309 11.1375Z" fill="#23A403"/>
<path d="M9.20207 13.3358C9.25432 13.3881 9.31639 13.4297 9.38473 13.4581C9.45307 13.4864 9.52633 13.501 9.60032 13.501C9.67431 13.501 9.74757 13.4864 9.81591 13.4581C9.88425 13.4297 9.94632 13.3881 9.99857 13.3358L13.3736 9.96075C13.4792 9.85513 13.5385 9.71187 13.5385 9.5625C13.5385 9.41313 13.4792 9.26987 13.3736 9.16425C13.2679 9.05863 13.1247 8.99929 12.9753 8.99929C12.8259 8.99929 12.6827 9.05863 12.5771 9.16425L10.1628 11.5796V1.6875C10.1628 1.53832 10.1036 1.39524 9.99807 1.28975C9.89258 1.18426 9.7495 1.125 9.60032 1.125C9.45114 1.125 9.30806 1.18426 9.20257 1.28975C9.09708 1.39524 9.03782 1.53832 9.03782 1.6875V11.5796L6.62357 9.16425C6.51795 9.05863 6.37469 8.99929 6.22532 8.99929C6.07595 8.99929 5.93269 9.05863 5.82707 9.16425C5.72145 9.26987 5.66211 9.41313 5.66211 9.5625C5.66211 9.71187 5.72145 9.85513 5.82707 9.96075L9.20207 13.3358Z" fill="#23A403"/>
</g>
<defs>
<clipPath id="clip0_39_7916">
<rect width="18" height="18" fill="white" transform="translate(0.600586)"/>
</clipPath>
</defs>
</svg>
