<svg width="20" height="14" viewBox="0 0 20 14" fill="none" xmlns="http://www.w3.org/2000/svg">
<path fill-rule="evenodd" clip-rule="evenodd" d="M12.0002 0H14.0002C15.3981 0 16.5727 0.95608 16.9057 2.25H19.0002C19.4145 2.25 19.7502 2.58579 19.7502 3C19.7502 3.41421 19.4145 3.75 19.0002 3.75H16.9057C16.5727 5.04392 15.3981 6 14.0002 6H12.0002C10.3434 6 9.00024 4.65685 9.00024 3C9.00024 1.34315 10.3434 0 12.0002 0ZM1 2.25C0.585786 2.25 0.25 2.58579 0.25 3C0.25 3.41421 0.585786 3.75 1 3.75H6C6.41421 3.75 6.75 3.41421 6.75 3C6.75 2.58579 6.41421 2.25 6 2.25H1ZM13.9998 10.25C13.5855 10.25 13.2498 10.5858 13.2498 11C13.2498 11.4142 13.5855 11.75 13.9998 11.75H18.9998C19.414 11.75 19.7498 11.4142 19.7498 11C19.7498 10.5858 19.414 10.25 18.9998 10.25H13.9998ZM8 8.00002H6C4.60212 8.00002 3.42755 8.95609 3.09451 10.25H1C0.585786 10.25 0.25 10.5858 0.25 11C0.25 11.4142 0.585786 11.75 1 11.75H3.09451C3.42755 13.0439 4.60212 14 6 14H8C9.65685 14 11 12.6569 11 11C11 9.34316 9.65685 8.00002 8 8.00002Z" fill="#292929"/>
</svg>
