<svg width="19" height="18" viewBox="0 0 19 18" fill="none" xmlns="http://www.w3.org/2000/svg">
<path d="M8.47559 3.37508H10.7256C10.7256 3.07671 10.6071 2.79056 10.3961 2.57958C10.1851 2.3686 9.89896 2.25008 9.60059 2.25008C9.30222 2.25008 9.01607 2.3686 8.80509 2.57958C8.59411 2.79056 8.47559 3.07671 8.47559 3.37508ZM7.35059 3.37508C7.35059 2.77834 7.58764 2.20604 8.0096 1.78409C8.43155 1.36213 9.00385 1.12508 9.60059 1.12508C10.1973 1.12508 10.7696 1.36213 11.1916 1.78409C11.6135 2.20604 11.8506 2.77834 11.8506 3.37508H16.3506C16.4998 3.37508 16.6428 3.43434 16.7483 3.53983C16.8538 3.64532 16.9131 3.78839 16.9131 3.93758C16.9131 4.08676 16.8538 4.22983 16.7483 4.33532C16.6428 4.44081 16.4998 4.50008 16.3506 4.50008H15.7161L14.3605 14.4428C14.2685 15.1166 13.9356 15.7343 13.4232 16.1815C12.9109 16.6287 12.2539 16.8751 11.5738 16.8751H7.62734C6.94729 16.8751 6.29028 16.6287 5.77795 16.1815C5.26561 15.7343 4.93265 15.1166 4.84071 14.4428L3.48509 4.50008H2.85059C2.7014 4.50008 2.55833 4.44081 2.45284 4.33532C2.34735 4.22983 2.28809 4.08676 2.28809 3.93758C2.28809 3.78839 2.34735 3.64532 2.45284 3.53983C2.55833 3.43434 2.7014 3.37508 2.85059 3.37508H7.35059ZM8.47559 7.31258C8.47559 7.16339 8.41632 7.02032 8.31083 6.91483C8.20534 6.80934 8.06227 6.75008 7.91309 6.75008C7.7639 6.75008 7.62083 6.80934 7.51534 6.91483C7.40985 7.02032 7.35059 7.16339 7.35059 7.31258V12.9376C7.35059 13.0868 7.40985 13.2298 7.51534 13.3353C7.62083 13.4408 7.7639 13.5001 7.91309 13.5001C8.06227 13.5001 8.20534 13.4408 8.31083 13.3353C8.41632 13.2298 8.47559 13.0868 8.47559 12.9376V7.31258ZM11.2881 6.75008C11.4373 6.75008 11.5803 6.80934 11.6858 6.91483C11.7913 7.02032 11.8506 7.16339 11.8506 7.31258V12.9376C11.8506 13.0868 11.7913 13.2298 11.6858 13.3353C11.5803 13.4408 11.4373 13.5001 11.2881 13.5001C11.1389 13.5001 10.9958 13.4408 10.8903 13.3353C10.7848 13.2298 10.7256 13.0868 10.7256 12.9376V7.31258C10.7256 7.16339 10.7848 7.02032 10.8903 6.91483C10.9958 6.80934 11.1389 6.75008 11.2881 6.75008ZM5.95559 14.291C6.0108 14.6952 6.21056 15.0657 6.51791 15.3339C6.82526 15.6022 7.21938 15.75 7.62734 15.7501H11.5738C11.982 15.7503 12.3764 15.6026 12.684 15.3343C12.9915 15.066 13.1915 14.6953 13.2467 14.291L14.581 4.50008H4.62021L5.95559 14.291Z" fill="#DE2F08"/>
</svg>
