<svg width="19" height="18" viewBox="0 0 19 18" fill="none" xmlns="http://www.w3.org/2000/svg">
<path d="M15.2256 5.76562H12.835V3.9375C12.835 3.07969 12.4942 2.25701 11.8876 1.65045C11.2811 1.04389 10.4584 0.703125 9.60059 0.703125C8.74278 0.703125 7.9201 1.04389 7.31354 1.65045C6.70697 2.25701 6.36621 3.07969 6.36621 3.9375V5.76562H3.97559C3.71451 5.76562 3.46413 5.86934 3.27953 6.05394C3.09492 6.23855 2.99121 6.48893 2.99121 6.75V14.625C2.99121 14.8861 3.09492 15.1365 3.27953 15.3211C3.46413 15.5057 3.71451 15.6094 3.97559 15.6094H15.2256C15.4867 15.6094 15.737 15.5057 15.9216 15.3211C16.1062 15.1365 16.21 14.8861 16.21 14.625V6.75C16.21 6.48893 16.1062 6.23855 15.9216 6.05394C15.737 5.86934 15.4867 5.76562 15.2256 5.76562ZM7.20996 3.9375C7.20996 3.30347 7.46183 2.6954 7.91016 2.24707C8.35849 1.79874 8.96655 1.54688 9.60059 1.54688C10.2346 1.54688 10.8427 1.79874 11.291 2.24707C11.7393 2.6954 11.9912 3.30347 11.9912 3.9375V5.76562H7.20996V3.9375ZM15.3662 14.625C15.3662 14.6623 15.3514 14.6981 15.325 14.7244C15.2987 14.7508 15.2629 14.7656 15.2256 14.7656H3.97559C3.93829 14.7656 3.90252 14.7508 3.87615 14.7244C3.84978 14.6981 3.83496 14.6623 3.83496 14.625V6.75C3.83496 6.7127 3.84978 6.67694 3.87615 6.65056C3.90252 6.62419 3.93829 6.60938 3.97559 6.60938H15.2256C15.2629 6.60938 15.2987 6.62419 15.325 6.65056C15.3514 6.67694 15.3662 6.7127 15.3662 6.75V14.625ZM10.3037 10.6875C10.3037 10.8266 10.2625 10.9625 10.1852 11.0781C10.108 11.1938 9.99814 11.2839 9.86966 11.3371C9.74118 11.3903 9.59981 11.4042 9.46341 11.3771C9.32702 11.35 9.20174 11.283 9.1034 11.1847C9.00507 11.0864 8.9381 10.9611 8.91097 10.8247C8.88384 10.6883 8.89777 10.5469 8.95098 10.4184C9.0042 10.2899 9.09432 10.1801 9.20995 10.1029C9.32558 10.0256 9.46152 9.98438 9.60059 9.98438C9.78707 9.98438 9.96591 10.0585 10.0978 10.1903C10.2296 10.3222 10.3037 10.501 10.3037 10.6875Z" fill="#99DDCC" stroke="#99DDCC" stroke-width="0.5"/>
<rect x="11.5693" y="3.9375" width="2.10938" height="1.82812" fill="white"/>
</svg>
