<svg width="18" height="18" viewBox="0 0 18 18" fill="none" xmlns="http://www.w3.org/2000/svg">
<path d="M14.625 5.76562H12.2344V3.9375C12.2344 3.07969 11.8936 2.25701 11.287 1.65045C10.6805 1.04389 9.85781 0.703125 9 0.703125C8.14219 0.703125 7.31951 1.04389 6.71295 1.65045C6.10639 2.25701 5.76562 3.07969 5.76562 3.9375V5.76562H3.375C3.11393 5.76562 2.86355 5.86934 2.67894 6.05394C2.49434 6.23855 2.39062 6.48893 2.39062 6.75V14.625C2.39062 14.8861 2.49434 15.1365 2.67894 15.3211C2.86355 15.5057 3.11393 15.6094 3.375 15.6094H14.625C14.8861 15.6094 15.1365 15.5057 15.3211 15.3211C15.5057 15.1365 15.6094 14.8861 15.6094 14.625V6.75C15.6094 6.48893 15.5057 6.23855 15.3211 6.05394C15.1365 5.86934 14.8861 5.76562 14.625 5.76562ZM6.60938 3.9375C6.60938 3.30347 6.86124 2.6954 7.30957 2.24707C7.7579 1.79874 8.36597 1.54688 9 1.54688C9.63403 1.54688 10.2421 1.79874 10.6904 2.24707C11.1388 2.6954 11.3906 3.30347 11.3906 3.9375V5.76562H6.60938V3.9375ZM14.7656 14.625C14.7656 14.6623 14.7508 14.6981 14.7244 14.7244C14.6981 14.7508 14.6623 14.7656 14.625 14.7656H3.375C3.3377 14.7656 3.30194 14.7508 3.27556 14.7244C3.24919 14.6981 3.23438 14.6623 3.23438 14.625V6.75C3.23438 6.7127 3.24919 6.67694 3.27556 6.65056C3.30194 6.62419 3.3377 6.60938 3.375 6.60938H14.625C14.6623 6.60938 14.6981 6.62419 14.7244 6.65056C14.7508 6.67694 14.7656 6.7127 14.7656 6.75V14.625ZM9.70312 10.6875C9.70312 10.8266 9.66189 10.9625 9.58463 11.0781C9.50737 11.1938 9.39755 11.2839 9.26907 11.3371C9.14059 11.3903 8.99922 11.4042 8.86283 11.3771C8.72643 11.35 8.60115 11.283 8.50282 11.1847C8.40448 11.0864 8.33752 10.9611 8.31039 10.8247C8.28326 10.6883 8.29718 10.5469 8.3504 10.4184C8.40362 10.2899 8.49374 10.1801 8.60936 10.1029C8.72499 10.0256 8.86094 9.98438 9 9.98438C9.18648 9.98438 9.36532 10.0585 9.49718 10.1903C9.62905 10.3222 9.70312 10.501 9.70312 10.6875Z" fill="#99DDCC" stroke="#99DDCC" stroke-width="0.5"/>
</svg>
