<svg width="20" height="20" viewBox="0 0 20 20" fill="none" xmlns="http://www.w3.org/2000/svg">
<g id="Group">
<g id="Group_2">
<g id="Group_3">
<path id="Vector" d="M13.0772 8.33346H13.051V6.95436C13.051 5.46841 11.842 4.25946 10.3562 4.25946H9.64425C8.1582 4.25946 6.9493 5.46846 6.9493 6.95436V8.33346H6.9231C6.48875 8.33346 6.1366 8.68581 6.1366 9.12016V14.1358C6.1366 14.5703 6.4888 14.9225 6.9231 14.9225H13.0774C13.5118 14.9225 13.8639 14.5703 13.8639 14.1358V9.12016C13.8637 8.68581 13.5115 8.33346 13.0772 8.33346ZM10.7865 12.3238C10.7865 12.7582 10.4344 13.1103 10 13.1103C9.56565 13.1103 9.21355 12.7582 9.21355 12.3238V11.3406C9.21355 10.9062 9.56565 10.5542 10 10.5542C10.4344 10.5542 10.7865 10.9063 10.7865 11.3406V12.3238ZM11.511 8.33346H8.4891V6.95436C8.4891 6.31751 9.0072 5.79946 9.6441 5.79946H10.356C10.9928 5.79946 11.511 6.31746 11.511 6.95436V8.33346Z" fill="#EEEEEE"/>
<path id="Vector_2" d="M17.6494 16.4438L17.7369 16.3372C19.2174 14.5366 20 12.3452 20 10.0001C20 7.61701 19.1938 5.39751 17.6685 3.58166L17.5835 3.48061L17.6294 3.35666C17.7122 3.13301 17.7541 2.89756 17.7541 2.65736C17.7541 1.54511 16.8493 0.640261 15.7371 0.640261C15.3311 0.640261 14.9396 0.760561 14.6049 0.987811L14.496 1.06186L14.3775 1.00421C13.0115 0.337861 11.5387 6.10352e-05 10 6.10352e-05C8.41065 6.10352e-05 6.89505 0.358861 5.49525 1.06661L5.36895 1.13041L5.25595 1.04531C4.9042 0.780311 4.485 0.640111 4.0436 0.640111C2.93145 0.640111 2.0267 1.54496 2.0267 2.65721C2.0267 2.95666 2.0911 3.24531 2.21815 3.51506L2.2786 3.64351L2.18975 3.75426C0.75725 5.53836 0 7.69826 0 10.0001C0 12.3452 0.7826 14.5366 2.2631 16.3372L2.3506 16.4438L2.29655 16.5706C2.19015 16.8206 2.13615 17.0862 2.13615 17.36C2.13615 18.472 3.041 19.3769 4.15315 19.3769C4.582 19.3769 4.9917 19.2436 5.33815 18.9916L5.44935 18.9108L5.57265 18.9718C6.95225 19.6541 8.44185 20.0001 10 20.0001C11.5582 20.0001 13.0477 19.6541 14.4273 18.9718L14.5506 18.9108L14.6619 18.9916C15.0083 19.2436 15.4181 19.3769 15.8468 19.3769C16.959 19.3769 17.8639 18.472 17.8639 17.36C17.8639 17.086 17.8099 16.8206 17.7035 16.5706L17.6494 16.4438ZM16.7519 15.3787L16.652 15.5038L16.5006 15.452C16.2896 15.3797 16.0695 15.3428 15.8468 15.3428C14.7347 15.3428 13.8298 16.2477 13.8298 17.36C13.8298 17.4292 13.8334 17.4994 13.8404 17.5685L13.8568 17.7277L13.7124 17.7969C12.5468 18.3541 11.2978 18.6364 9.99995 18.6364C8.70205 18.6364 7.453 18.3541 6.28755 17.7969L6.14305 17.7277L6.1595 17.5685C6.16655 17.4994 6.1702 17.4292 6.1702 17.36C6.1702 16.2477 5.26535 15.3428 4.1532 15.3428C3.9304 15.3428 3.71045 15.3796 3.49935 15.452L3.34795 15.5038L3.24805 15.3787C2.01525 13.8343 1.36365 11.9743 1.36365 10.0001C1.36365 8.04541 2.0033 6.20026 3.21345 4.66436L3.30945 4.54246L3.4579 4.58741C3.6477 4.64496 3.84475 4.67411 4.0436 4.67411C5.15575 4.67411 6.0606 3.76926 6.0606 2.65721C6.0606 2.60201 6.05795 2.54396 6.0523 2.48016L6.03895 2.32571L6.17785 2.25681C7.3739 1.66416 8.65985 1.36366 9.99995 1.36366C11.2576 1.36366 12.4716 1.62981 13.6083 2.15456L13.7602 2.22466L13.7383 2.39056C13.7264 2.48161 13.7203 2.57126 13.7203 2.65716C13.7203 3.76921 14.6251 4.67406 15.7373 4.67406C15.9915 4.67406 16.2402 4.62681 16.4765 4.53366L16.6322 4.47216L16.7371 4.60271C17.962 6.12866 18.6364 8.04541 18.6364 9.99991C18.6364 11.9743 17.9848 13.8344 16.7519 15.3787Z" fill="#EEEEEE"/>
</g>
</g>
</g>
</svg>
