<svg width="24" height="24" viewBox="0 0 24 24" fill="none" xmlns="http://www.w3.org/2000/svg">
<g id="ic:round-navigate-next">
<path id="Vector" d="M9.31002 6.71007C9.21732 6.80258 9.14377 6.91247 9.09359 7.03344C9.04341 7.15442 9.01758 7.2841 9.01758 7.41507C9.01758 7.54604 9.04341 7.67572 9.09359 7.79669C9.14377 7.91767 9.21732 8.02755 9.31002 8.12007L13.19 12.0001L9.31002 15.8801C9.12304 16.067 9.018 16.3206 9.018 16.5851C9.018 16.8495 9.12304 17.1031 9.31002 17.2901C9.497 17.477 9.7506 17.5821 10.015 17.5821C10.2794 17.5821 10.533 17.477 10.72 17.2901L15.31 12.7001C15.4027 12.6076 15.4763 12.4977 15.5265 12.3767C15.5766 12.2557 15.6025 12.126 15.6025 11.9951C15.6025 11.8641 15.5766 11.7344 15.5265 11.6134C15.4763 11.4925 15.4027 11.3826 15.31 11.2901L10.72 6.70007C10.34 6.32007 9.70002 6.32007 9.31002 6.71007Z" fill="#666666"/>
</g>
</svg>
