<svg width="56" height="57" viewBox="0 0 56 57" fill="none" xmlns="http://www.w3.org/2000/svg">
<g id="Group 126">
<path id="Polygon 1" d="M35.4001 30.2321C36.7334 29.4623 36.7334 27.5378 35.4001 26.768L25.8001 21.2255C24.4667 20.4557 22.8001 21.4179 22.8001 22.9575L22.8001 34.0426C22.8001 35.5822 24.4667 36.5445 25.8001 35.7747L35.4001 30.2321Z" fill="white"/>
<g id="Group 122">
<path id="Vector" d="M28 0.500061C22.4621 0.500061 17.0486 2.14223 12.444 5.21891C7.83947 8.29559 4.25064 12.6686 2.13139 17.7849C0.0121315 22.9013 -0.542361 28.5311 0.538025 33.9626C1.61841 39.3941 4.28515 44.3832 8.20103 48.2991C12.1169 52.2149 17.106 54.8817 22.5375 55.9621C27.969 57.0424 33.5988 56.488 38.7152 54.3687C43.8315 52.2494 48.2045 48.6606 51.2812 44.056C54.3579 39.4515 56 34.0379 56 28.5001C55.9919 21.0765 53.0393 13.9593 47.79 8.71008C42.5408 3.46082 35.4236 0.508214 28 0.500061ZM28 54.2601C22.9052 54.2601 17.9247 52.7493 13.6885 49.9187C9.45231 47.0882 6.15059 43.065 4.20088 38.358C2.25116 33.651 1.74103 28.4715 2.73498 23.4745C3.72894 18.4776 6.18234 13.8876 9.78494 10.285C13.3875 6.68239 17.9775 4.22899 22.9745 3.23503C27.9714 2.24108 33.1509 2.75121 37.8579 4.70092C42.565 6.65064 46.5881 9.95236 49.4187 14.1886C52.2492 18.4248 53.76 23.4052 53.76 28.5001C53.7526 35.3298 51.0362 41.8776 46.2069 46.707C41.3776 51.5363 34.8297 54.2527 28 54.2601ZM37.5816 27.5677L24.1416 18.6077C23.9729 18.4951 23.7768 18.4305 23.5742 18.4207C23.3716 18.4108 23.1702 18.4562 22.9914 18.5519C22.8126 18.6477 22.6631 18.7901 22.559 18.9642C22.4548 19.1382 22.3999 19.3372 22.4 19.5401V37.4601C22.3998 37.6629 22.4546 37.8619 22.5587 38.036C22.6627 38.2101 22.8121 38.3526 22.9908 38.4485C23.1697 38.5443 23.3713 38.5897 23.574 38.5798C23.7767 38.5699 23.9729 38.5052 24.1416 38.3925L37.5816 29.4325C37.7352 29.3302 37.8612 29.1916 37.9484 29.0289C38.0355 28.8663 38.0811 28.6846 38.0811 28.5001C38.0811 28.3155 38.0355 28.1339 37.9484 27.9712C37.8612 27.8085 37.7352 27.6699 37.5816 27.5677ZM24.64 35.3685V21.6317L34.9412 28.5001L24.64 35.3685Z" fill="white"/>
</g>
</g>
</svg>
